# xmcd
#
# Track frame offsets:
#	150
#	11590
#	27345
#	44257
#	60862
#	82037
#	95342
#	110402
#	123980
#	137560
#	155325
#	168915
#	188682
#	202510
#
# Disc length: 2998
#
# Revision: 3
# Processed by: cddbd v1.5.1PL0 Copyright (c) Steve Scherf et al.
# Submitted via: OrangeCD 5.2
# Normalized: r2:DSETVAR1
#
DISCID=a10bb40e
DTITLE=Various Artist - Mr. Music Country - 08-94
DYEAR=1994
DGENRE=Country
TTITLE0=David Allan Coe - Drink Canada Dry -
TTITLE1=Gibson/Miller Band - Stone Cold Country -
TTITLE2=Dolly Parton - Why Can't We -
TTITLE3=Larry Boone - Watermelon Time In Georgia -
TTITLE4=Willie Nelson - Graceland -
TTITLE5=Vern Gosdin with Janie Fricki - Two Good People With A Love Gone Bad -
TTITLE6=Charlie Daniels - The Twang Factor -
TTITLE7=Loretta Lynn with Dolly Parton and Tammy Wynett - Wouldn't It Be Great -
TTITLE8=Gary Lee Hale - Fort Worth Is Still The Swinging Door To Where The West Begins -
TTITLE9=Jim Casey - Mary and Joe -
TTITLE10=Tony Martin - It Must Have Been Something I Drank -
TTITLE11=Tim Ryan - Honky Tonk Highway -
TTITLE12=Jesse Lee with Bonnie James - Old Fiddles and Strawberry Wine -
TTITLE13=Marty Robbins - Twentu Dollar Jim -
EXTD=
EXTT0=
EXTT1=
EXTT2=
EXTT3=
EXTT4=
EXTT5=
EXTT6=
EXTT7=
EXTT8=
EXTT9=
EXTT10=
EXTT11=
EXTT12=
EXTT13=
PLAYORDER=
